<svg width="64" height="64" viewBox="0 0 64 64" fill="none" xmlns="http://www.w3.org/2000/svg">
<path fill-rule="evenodd" clip-rule="evenodd" d="M26.1814 7.8136L41.1904 0.541202C42.6458 -0.164082 44.342 -0.180819 45.8113 0.495609L60.8646 7.42591C62.7761 8.30586 64 10.2139 64 12.3134V58.6169C64 61.59 61.5835 64 58.6024 64H14.0054C12.0213 64 10.1973 62.9145 9.25515 61.173L0.647358 45.2627C-0.235099 43.6316 -0.214145 41.6624 0.702808 40.0504L9.23345 25.0529C10.1921 23.3674 11.9852 22.3259 13.9282 22.3259H23.1425V12.6556C23.1425 10.5945 24.3225 8.71428 26.1814 7.8136Z" fill="#272E78"/>
<path d="M3.9498 51.3665L0.647391 45.2627C-0.235111 43.6316 -0.214156 41.6625 0.702844 40.0505L9.23392 25.0529C10.1927 23.3674 11.9858 22.3259 13.9289 22.3259H23.1425V42.3112C23.1425 48.6932 17.8425 53.8667 11.3046 53.8667C8.52526 53.8667 5.96964 52.9318 3.9498 51.3665Z" fill="#1A1E4F"/>
</svg>
